<svg xmlns="http://www.w3.org/2000/svg" viewBox="0 0 420 84" role="img" aria-labelledby="title desc">
  <title id="title">はと銀行</title>
  <desc id="desc">鳩と芽を組み合わせた、はと銀行のロゴ</desc>
  <g fill="none" stroke="#075c43" stroke-linecap="round" stroke-linejoin="round">
    <circle cx="42" cy="42" r="34" stroke-width="6" stroke-dasharray="178 38" transform="rotate(-28 42 42)"/>
    <path d="M15 45c9-2 17-7 23-15 7 9 15 14 26 15-6 4-11 7-17 9-5 9-13 15-24 17 4-6 5-11 4-17-5-2-9-5-12-9Z" fill="#fff" stroke-width="4"/>
    <path d="M23 52c10 1 18-2 25-9 3-3 7-4 11-2 4 2 7 5 9 9" stroke-width="4"/>
    <path d="M59 40c1-8 5-13 12-15-1 8-5 13-12 15Zm5 2c7-3 13-2 18 3-7 3-13 2-18-3Z" fill="#075c43" stroke-width="2"/>
  </g>
  <circle cx="73" cy="54" r="5" fill="#f28a2e"/>
  <text x="96" y="55" fill="#075c43" font-family="'Hiragino Sans','Yu Gothic',sans-serif" font-size="38" font-weight="700" letter-spacing="3">はと銀行</text>
</svg>
